# xmcd
# 
# Track frame offsets:
#     150
#     19569
#     39573
#     56143
#     72485
#     93809
#     110288
#     128144
#     143968
#     158049
#     174308
#     191401
#     209459
#     226312
#     240386
#     252789
#     270521
#     288892
# 
# Disc length: 4066
# 
# Revision: 2
# Processed by: cddbd v1.5.2PL0 Copyright (c) Steve Scherf et al.
# Submitted via: fre:ac v1.0.17
# 
DISCID=f10fe012
DTITLE=宇沙美ゆかり - 「16ページ目のとまどい」＋Single Collection
DYEAR=2008
DGENRE=Country
TTITLE0=星のパートナー
TTITLE1=半分だけ恋
TTITLE2=アルカリ少年
TTITLE3=恋とギャルソン
TTITLE4=ファースト・スノウ・キッス
TTITLE5=レプリカ・モデル
TTITLE6=週末はDelicate
TTITLE7=初めての旅
TTITLE8=北風スクリーン
TTITLE9=ツライ・キライ・クライMAX
TTITLE10=蒼い多感期
TTITLE11=と・き・め・き タイフーン
TTITLE12=SHOCK！
TTITLE13=トビウオたちの夏
TTITLE14=日焼けをセメて泣かないで
TTITLE15=風のプリマドンナ
TTITLE16=恋はDancing
TTITLE17=涙色セブンティーン
EXTD=
EXTT0=
EXTT1=
EXTT2=
EXTT3=
EXTT4=
EXTT5=
EXTT6=
EXTT7=
EXTT8=
EXTT9=
EXTT10=
EXTT11=
EXTT12=
EXTT13=
EXTT14=
EXTT15=
EXTT16=
EXTT17=
PLAYORDER=
